<?xml version="1.0" encoding="UTF-8" standalone="no"?>
<svg xmlns="http://www.w3.org/2000/svg" viewBox="0 0 320 320" preserveAspectRatio="xMidYMid meet">

<line x1="160" y1="169.6" x2="175.832" y2="117.554" style="stroke:rgb(255,0,0);fill:none;"/>
<line x1="175.832" y1="117.554" x2="177.848" y2="89.975" style="stroke:rgb(0,170,0);stroke-opacity:0.4;fill:none;"/>
<path d="M 175.832,117.554 A45.714 45.714 90 0 0 175.797,61.952" style="stroke:rgb(0,0,255);stroke-opacity:0.4;fill:none;"/>
<path d="M 175.832,117.554 A960 960 90 0 1 197.156,209.333" style="stroke:rgb(0,0,255);stroke-opacity:0.4;fill:none;"/>
<path d="M 175.832,117.554 A160 160 90 0 1 220.032,224.869" style="stroke:rgb(0,170,0);stroke-opacity:0.4;fill:none;"/>
<path d="M 175.832,117.554 A160 160 90 0 1 301.651,250.649" style="stroke:rgb(0,170,0);stroke-opacity:0.4;fill:none;"/>
<path d="M 175.832,117.554 A160 160 90 0 1 245.326,237.104" style="stroke:rgb(255,0,0);fill:none;"/>
<path d="M 175.832,117.554 A160 160 90 0 1 272.665,245.773" style="stroke:rgb(255,0,0);fill:none;"/>
<line x1="160" y1="169.6" x2="177.848" y2="89.975" style="stroke:rgb(255,0,0);fill:none;"/>
<line x1="177.848" y1="89.975" x2="175.797" y2="61.952" style="stroke:rgb(0,170,0);stroke-opacity:0.4;fill:none;"/>
<path d="M 177.848,89.975 A45.714 45.714 90 0 0 169.635,33.941" style="stroke:rgb(0,0,255);stroke-opacity:0.4;fill:none;"/>
<path d="M 177.848,89.975 A960 960 90 0 1 220.032,224.869" style="stroke:rgb(0,0,255);stroke-opacity:0.4;fill:none;"/>
<path d="M 177.848,89.975 A160 160 90 0 1 245.326,237.104" style="stroke:rgb(0,170,0);stroke-opacity:0.4;fill:none;"/>
<path d="M 177.848,89.975 A160 160 90 0 1 197.156,209.333" style="stroke:rgb(0,170,0);stroke-opacity:0.4;fill:none;"/>
<path d="M 177.848,89.975 A160 160 90 0 1 272.665,245.773" style="stroke:rgb(255,0,0);fill:none;"/>
<path d="M 177.848,89.975 A160 160 90 0 1 301.651,250.649" style="stroke:rgb(255,0,0);fill:none;"/>
<line x1="160" y1="169.6" x2="175.797" y2="61.952" style="stroke:rgb(255,0,0);fill:none;"/>
<line x1="175.797" y1="61.952" x2="169.635" y2="33.941" style="stroke:rgb(0,170,0);stroke-opacity:0.4;fill:none;"/>
<path d="M 175.797,61.952 A45.714 45.714 90 0 0 159.365,6.401" style="stroke:rgb(0,0,255);stroke-opacity:0.4;fill:none;"/>
<path d="M 175.797,61.952 A960 960 90 0 1 245.326,237.104" style="stroke:rgb(0,0,255);stroke-opacity:0.4;fill:none;"/>
<path d="M 175.797,61.952 A160 160 90 0 1 272.665,245.773" style="stroke:rgb(0,170,0);stroke-opacity:0.4;fill:none;"/>
<path d="M 175.797,61.952 A160 160 90 0 1 220.032,224.869" style="stroke:rgb(0,170,0);stroke-opacity:0.4;fill:none;"/>
<path d="M 175.797,61.952 A160 160 90 0 1 301.651,250.649" style="stroke:rgb(255,0,0);fill:none;"/>
<path d="M 175.797,61.952 A160 160 90 0 1 197.156,209.333" style="stroke:rgb(255,0,0);fill:none;"/>
<line x1="160" y1="169.6" x2="169.635" y2="33.941" style="stroke:rgb(255,0,0);fill:none;"/>
<line x1="169.635" y1="33.941" x2="159.365" y2="6.401" style="stroke:rgb(0,170,0);stroke-opacity:0.4;fill:none;"/>
<path d="M 169.635,33.941 A80 80 90 0 0 175.832,117.554" style="stroke:rgb(0,0,255);stroke-opacity:0.4;fill:none;"/>
<path d="M 169.635,33.941 A960 960 90 0 1 272.665,245.773" style="stroke:rgb(0,0,255);stroke-opacity:0.4;fill:none;"/>
<path d="M 169.635,33.941 A160 160 90 0 1 301.651,250.649" style="stroke:rgb(0,170,0);stroke-opacity:0.4;fill:none;"/>
<path d="M 169.635,33.941 A160 160 90 0 1 245.326,237.104" style="stroke:rgb(0,170,0);stroke-opacity:0.4;fill:none;"/>
<path d="M 169.635,33.941 A160 160 90 0 1 197.156,209.333" style="stroke:rgb(255,0,0);fill:none;"/>
<path d="M 169.635,33.941 A160 160 90 0 1 220.032,224.869" style="stroke:rgb(255,0,0);fill:none;"/>
<line x1="160" y1="169.6" x2="159.365" y2="6.401" style="stroke:rgb(255,0,0);fill:none;"/>
<line x1="159.365" y1="6.401" x2="175.832" y2="117.554" style="stroke:rgb(0,170,0);stroke-opacity:0.4;fill:none;"/>
<path d="M 159.365,6.401 A80 80 90 0 0 177.848,89.975" style="stroke:rgb(0,0,255);stroke-opacity:0.4;fill:none;"/>
<path d="M 159.365,6.401 A960 960 90 0 1 301.651,250.649" style="stroke:rgb(0,0,255);stroke-opacity:0.4;fill:none;"/>
<path d="M 159.365,6.401 A160 160 90 0 1 197.156,209.333" style="stroke:rgb(0,170,0);stroke-opacity:0.4;fill:none;"/>
<path d="M 159.365,6.401 A160 160 90 0 1 272.665,245.773" style="stroke:rgb(0,170,0);stroke-opacity:0.4;fill:none;"/>
<path d="M 159.365,6.401 A160 160 90 0 1 220.032,224.869" style="stroke:rgb(255,0,0);fill:none;"/>
<path d="M 159.365,6.401 A160 160 90 0 1 245.326,237.104" style="stroke:rgb(255,0,0);fill:none;"/>
<line x1="160" y1="169.6" x2="197.156" y2="209.333" style="stroke:rgb(0,170,0);stroke-opacity:0.4;fill:none;"/>
<line x1="197.156" y1="209.333" x2="220.032" y2="224.869" style="stroke:rgb(0,0,255);stroke-opacity:0.4;fill:none;"/>
<path d="M 197.156,209.333 A45.714 45.714 90 0 0 245.326,237.104" style="stroke:rgb(255,0,0);fill:none;"/>
<path d="M 197.156,209.333 A960 960 90 0 1 107.011,181.911" style="stroke:rgb(255,0,0);fill:none;"/>
<path d="M 197.156,209.333 A160 160 90 0 1 82.119,193.955" style="stroke:rgb(0,0,255);stroke-opacity:0.4;fill:none;"/>
<path d="M 197.156,209.333 A160 160 90 0 1 18.983,251.749" style="stroke:rgb(0,0,255);stroke-opacity:0.4;fill:none;"/>
<path d="M 197.156,209.333 A160 160 90 0 1 58.876,209.742" style="stroke:rgb(0,170,0);stroke-opacity:0.4;fill:none;"/>
<path d="M 197.156,209.333 A160 160 90 0 1 37.698,229.084" style="stroke:rgb(0,170,0);stroke-opacity:0.4;fill:none;"/>
<line x1="160" y1="169.6" x2="220.032" y2="224.869" style="stroke:rgb(0,170,0);stroke-opacity:0.4;fill:none;"/>
<line x1="220.032" y1="224.869" x2="245.326" y2="237.104" style="stroke:rgb(0,0,255);stroke-opacity:0.4;fill:none;"/>
<path d="M 220.032,224.869 A45.714 45.714 90 0 0 272.665,245.773" style="stroke:rgb(255,0,0);fill:none;"/>
<path d="M 220.032,224.869 A960 960 90 0 1 82.119,193.955" style="stroke:rgb(255,0,0);fill:none;"/>
<path d="M 220.032,224.869 A160 160 90 0 1 58.876,209.742" style="stroke:rgb(0,0,255);stroke-opacity:0.4;fill:none;"/>
<path d="M 220.032,224.869 A160 160 90 0 1 107.011,181.911" style="stroke:rgb(0,0,255);stroke-opacity:0.4;fill:none;"/>
<path d="M 220.032,224.869 A160 160 90 0 1 37.698,229.084" style="stroke:rgb(0,170,0);stroke-opacity:0.4;fill:none;"/>
<path d="M 220.032,224.869 A160 160 90 0 1 18.983,251.749" style="stroke:rgb(0,170,0);stroke-opacity:0.4;fill:none;"/>
<line x1="160" y1="169.6" x2="245.326" y2="237.104" style="stroke:rgb(0,170,0);stroke-opacity:0.4;fill:none;"/>
<line x1="245.326" y1="237.104" x2="272.665" y2="245.773" style="stroke:rgb(0,0,255);stroke-opacity:0.4;fill:none;"/>
<path d="M 245.326,237.104 A45.714 45.714 90 0 0 301.651,250.649" style="stroke:rgb(255,0,0);fill:none;"/>
<path d="M 245.326,237.104 A960 960 90 0 1 58.876,209.742" style="stroke:rgb(255,0,0);fill:none;"/>
<path d="M 245.326,237.104 A160 160 90 0 1 37.698,229.084" style="stroke:rgb(0,0,255);stroke-opacity:0.4;fill:none;"/>
<path d="M 245.326,237.104 A160 160 90 0 1 82.119,193.955" style="stroke:rgb(0,0,255);stroke-opacity:0.4;fill:none;"/>
<path d="M 245.326,237.104 A160 160 90 0 1 18.983,251.749" style="stroke:rgb(0,170,0);stroke-opacity:0.4;fill:none;"/>
<path d="M 245.326,237.104 A160 160 90 0 1 107.011,181.911" style="stroke:rgb(0,170,0);stroke-opacity:0.4;fill:none;"/>
<line x1="160" y1="169.6" x2="272.665" y2="245.773" style="stroke:rgb(0,170,0);stroke-opacity:0.4;fill:none;"/>
<line x1="272.665" y1="245.773" x2="301.651" y2="250.649" style="stroke:rgb(0,0,255);stroke-opacity:0.4;fill:none;"/>
<path d="M 272.665,245.773 A80 80 90 0 0 197.156,209.333" style="stroke:rgb(255,0,0);fill:none;"/>
<path d="M 272.665,245.773 A960 960 90 0 1 37.698,229.084" style="stroke:rgb(255,0,0);fill:none;"/>
<path d="M 272.665,245.773 A160 160 90 0 1 18.983,251.749" style="stroke:rgb(0,0,255);stroke-opacity:0.4;fill:none;"/>
<path d="M 272.665,245.773 A160 160 90 0 1 58.876,209.742" style="stroke:rgb(0,0,255);stroke-opacity:0.4;fill:none;"/>
<path d="M 272.665,245.773 A160 160 90 0 1 107.011,181.911" style="stroke:rgb(0,170,0);stroke-opacity:0.4;fill:none;"/>
<path d="M 272.665,245.773 A160 160 90 0 1 82.119,193.955" style="stroke:rgb(0,170,0);stroke-opacity:0.4;fill:none;"/>
<line x1="160" y1="169.6" x2="301.651" y2="250.649" style="stroke:rgb(0,170,0);stroke-opacity:0.4;fill:none;"/>
<line x1="301.651" y1="250.649" x2="197.156" y2="209.333" style="stroke:rgb(0,0,255);stroke-opacity:0.4;fill:none;"/>
<path d="M 301.651,250.649 A80 80 90 0 0 220.032,224.869" style="stroke:rgb(255,0,0);fill:none;"/>
<path d="M 301.651,250.649 A960 960 90 0 1 18.983,251.749" style="stroke:rgb(255,0,0);fill:none;"/>
<path d="M 301.651,250.649 A160 160 90 0 1 107.011,181.911" style="stroke:rgb(0,0,255);stroke-opacity:0.4;fill:none;"/>
<path d="M 301.651,250.649 A160 160 90 0 1 37.698,229.084" style="stroke:rgb(0,0,255);stroke-opacity:0.4;fill:none;"/>
<path d="M 301.651,250.649 A160 160 90 0 1 82.119,193.955" style="stroke:rgb(0,170,0);stroke-opacity:0.4;fill:none;"/>
<path d="M 301.651,250.649 A160 160 90 0 1 58.876,209.742" style="stroke:rgb(0,170,0);stroke-opacity:0.4;fill:none;"/>
<line x1="160" y1="169.6" x2="107.011" y2="181.911" style="stroke:rgb(0,0,255);stroke-opacity:0.4;fill:none;"/>
<line x1="107.011" y1="181.911" x2="82.119" y2="193.955" style="stroke:rgb(255,0,0);fill:none;"/>
<path d="M 107.011,181.911 A45.714 45.714 90 0 0 58.876,209.742" style="stroke:rgb(0,170,0);stroke-opacity:0.4;fill:none;"/>
<path d="M 107.011,181.911 A960 960 90 0 1 175.832,117.554" style="stroke:rgb(0,170,0);stroke-opacity:0.4;fill:none;"/>
<path d="M 107.011,181.911 A160 160 90 0 1 177.848,89.975" style="stroke:rgb(255,0,0);fill:none;"/>
<path d="M 107.011,181.911 A160 160 90 0 1 159.365,6.401" style="stroke:rgb(255,0,0);fill:none;"/>
<path d="M 107.011,181.911 A160 160 90 0 1 175.797,61.952" style="stroke:rgb(0,0,255);stroke-opacity:0.4;fill:none;"/>
<path d="M 107.011,181.911 A160 160 90 0 1 169.635,33.941" style="stroke:rgb(0,0,255);stroke-opacity:0.4;fill:none;"/>
<line x1="160" y1="169.6" x2="82.119" y2="193.955" style="stroke:rgb(0,0,255);stroke-opacity:0.4;fill:none;"/>
<line x1="82.119" y1="193.955" x2="58.876" y2="209.742" style="stroke:rgb(255,0,0);fill:none;"/>
<path d="M 82.119,193.955 A45.714 45.714 90 0 0 37.698,229.084" style="stroke:rgb(0,170,0);stroke-opacity:0.4;fill:none;"/>
<path d="M 82.119,193.955 A960 960 90 0 1 177.848,89.975" style="stroke:rgb(0,170,0);stroke-opacity:0.4;fill:none;"/>
<path d="M 82.119,193.955 A160 160 90 0 1 175.797,61.952" style="stroke:rgb(255,0,0);fill:none;"/>
<path d="M 82.119,193.955 A160 160 90 0 1 175.832,117.554" style="stroke:rgb(255,0,0);fill:none;"/>
<path d="M 82.119,193.955 A160 160 90 0 1 169.635,33.941" style="stroke:rgb(0,0,255);stroke-opacity:0.4;fill:none;"/>
<path d="M 82.119,193.955 A160 160 90 0 1 159.365,6.401" style="stroke:rgb(0,0,255);stroke-opacity:0.4;fill:none;"/>
<line x1="160" y1="169.6" x2="58.876" y2="209.742" style="stroke:rgb(0,0,255);stroke-opacity:0.4;fill:none;"/>
<line x1="58.876" y1="209.742" x2="37.698" y2="229.084" style="stroke:rgb(255,0,0);fill:none;"/>
<path d="M 58.876,209.742 A45.714 45.714 90 0 0 18.983,251.749" style="stroke:rgb(0,170,0);stroke-opacity:0.4;fill:none;"/>
<path d="M 58.876,209.742 A960 960 90 0 1 175.797,61.952" style="stroke:rgb(0,170,0);stroke-opacity:0.4;fill:none;"/>
<path d="M 58.876,209.742 A160 160 90 0 1 169.635,33.941" style="stroke:rgb(255,0,0);fill:none;"/>
<path d="M 58.876,209.742 A160 160 90 0 1 177.848,89.975" style="stroke:rgb(255,0,0);fill:none;"/>
<path d="M 58.876,209.742 A160 160 90 0 1 159.365,6.401" style="stroke:rgb(0,0,255);stroke-opacity:0.4;fill:none;"/>
<path d="M 58.876,209.742 A160 160 90 0 1 175.832,117.554" style="stroke:rgb(0,0,255);stroke-opacity:0.4;fill:none;"/>
<line x1="160" y1="169.6" x2="37.698" y2="229.084" style="stroke:rgb(0,0,255);stroke-opacity:0.4;fill:none;"/>
<line x1="37.698" y1="229.084" x2="18.983" y2="251.749" style="stroke:rgb(255,0,0);fill:none;"/>
<path d="M 37.698,229.084 A80 80 90 0 0 107.011,181.911" style="stroke:rgb(0,170,0);stroke-opacity:0.4;fill:none;"/>
<path d="M 37.698,229.084 A960 960 90 0 1 169.635,33.941" style="stroke:rgb(0,170,0);stroke-opacity:0.4;fill:none;"/>
<path d="M 37.698,229.084 A160 160 90 0 1 159.365,6.401" style="stroke:rgb(255,0,0);fill:none;"/>
<path d="M 37.698,229.084 A160 160 90 0 1 175.797,61.952" style="stroke:rgb(255,0,0);fill:none;"/>
<path d="M 37.698,229.084 A160 160 90 0 1 175.832,117.554" style="stroke:rgb(0,0,255);stroke-opacity:0.4;fill:none;"/>
<path d="M 37.698,229.084 A160 160 90 0 1 177.848,89.975" style="stroke:rgb(0,0,255);stroke-opacity:0.4;fill:none;"/>
<line x1="160" y1="169.6" x2="18.983" y2="251.749" style="stroke:rgb(0,0,255);stroke-opacity:0.4;fill:none;"/>
<line x1="18.983" y1="251.749" x2="107.011" y2="181.911" style="stroke:rgb(255,0,0);fill:none;"/>
<path d="M 18.983,251.749 A80 80 90 0 0 82.119,193.955" style="stroke:rgb(0,170,0);stroke-opacity:0.4;fill:none;"/>
<path d="M 18.983,251.749 A960 960 90 0 1 159.365,6.401" style="stroke:rgb(0,170,0);stroke-opacity:0.4;fill:none;"/>
<path d="M 18.983,251.749 A160 160 90 0 1 175.832,117.554" style="stroke:rgb(255,0,0);fill:none;"/>
<path d="M 18.983,251.749 A160 160 90 0 1 169.635,33.941" style="stroke:rgb(255,0,0);fill:none;"/>
<path d="M 18.983,251.749 A160 160 90 0 1 177.848,89.975" style="stroke:rgb(0,0,255);stroke-opacity:0.4;fill:none;"/>
<path d="M 18.983,251.749 A160 160 90 0 1 175.797,61.952" style="stroke:rgb(0,0,255);stroke-opacity:0.4;fill:none;"/>
<circle cx="160" cy="169.6" r="2" style="stroke:black;fill:black;"/>
<circle cx="175.832" cy="117.554" r="2" style="stroke:black;fill:black;"/>
<circle cx="197.156" cy="209.333" r="2" style="stroke:black;fill:black;"/>
<circle cx="107.011" cy="181.911" r="2" style="stroke:black;fill:black;"/>
<circle cx="177.848" cy="89.975" r="2" style="stroke:black;fill:black;"/>
<circle cx="220.032" cy="224.869" r="2" style="stroke:black;fill:black;"/>
<circle cx="82.119" cy="193.955" r="2" style="stroke:black;fill:black;"/>
<circle cx="175.797" cy="61.952" r="2" style="stroke:black;fill:black;"/>
<circle cx="245.326" cy="237.104" r="2" style="stroke:black;fill:black;"/>
<circle cx="58.876" cy="209.742" r="2" style="stroke:black;fill:black;"/>
<circle cx="169.635" cy="33.941" r="2" style="stroke:black;fill:black;"/>
<circle cx="272.665" cy="245.773" r="2" style="stroke:black;fill:black;"/>
<circle cx="37.698" cy="229.084" r="2" style="stroke:black;fill:black;"/>
<circle cx="159.365" cy="6.401" r="2" style="stroke:black;fill:black;"/>
<circle cx="301.651" cy="250.649" r="2" style="stroke:black;fill:black;"/>
<circle cx="18.983" cy="251.749" r="2" style="stroke:black;fill:black;"/>

</svg>
